<mxfile host="app.diagrams.net" modified="2020-05-15T14:52:07.912Z" agent="5.0 (Windows NT 10.0; Win64; x64) AppleWebKit/537.36 (KHTML, like Gecko) Chrome/81.0.4044.138 Safari/537.36" etag="dJHXhr-PbakpEV9CubTN" version="13.1.1" type="github">
  <diagram id="C5RBs43oDa-KdzZeNtuy" name="Page-1">
    <mxGraphModel dx="1038" dy="556" grid="1" gridSize="10" guides="1" tooltips="1" connect="1" arrows="1" fold="1" page="1" pageScale="1" pageWidth="827" pageHeight="1169" math="0" shadow="0">
      <root>
        <mxCell id="WIyWlLk6GJQsqaUBKTNV-0" />
        <mxCell id="WIyWlLk6GJQsqaUBKTNV-1" parent="WIyWlLk6GJQsqaUBKTNV-0" />
        <mxCell id="c80w9oIMeN7Q-BQ2yAEg-27" style="edgeStyle=orthogonalEdgeStyle;rounded=0;orthogonalLoop=1;jettySize=auto;html=1;entryX=0.5;entryY=0;entryDx=0;entryDy=0;" edge="1" parent="WIyWlLk6GJQsqaUBKTNV-1" source="c80w9oIMeN7Q-BQ2yAEg-0" target="c80w9oIMeN7Q-BQ2yAEg-1">
          <mxGeometry relative="1" as="geometry" />
        </mxCell>
        <mxCell id="c80w9oIMeN7Q-BQ2yAEg-0" value="开始" style="strokeWidth=2;html=1;shape=mxgraph.flowchart.start_1;whiteSpace=wrap;" vertex="1" parent="WIyWlLk6GJQsqaUBKTNV-1">
          <mxGeometry x="364" y="30" width="100" height="60" as="geometry" />
        </mxCell>
        <mxCell id="c80w9oIMeN7Q-BQ2yAEg-28" style="edgeStyle=orthogonalEdgeStyle;rounded=0;orthogonalLoop=1;jettySize=auto;html=1;entryX=0.5;entryY=0;entryDx=0;entryDy=0;entryPerimeter=0;" edge="1" parent="WIyWlLk6GJQsqaUBKTNV-1" source="c80w9oIMeN7Q-BQ2yAEg-1" target="c80w9oIMeN7Q-BQ2yAEg-6">
          <mxGeometry relative="1" as="geometry" />
        </mxCell>
        <mxCell id="c80w9oIMeN7Q-BQ2yAEg-1" value="读取收益配置" style="rounded=1;whiteSpace=wrap;html=1;absoluteArcSize=1;arcSize=14;strokeWidth=2;" vertex="1" parent="WIyWlLk6GJQsqaUBKTNV-1">
          <mxGeometry x="346" y="180" width="136" height="50" as="geometry" />
        </mxCell>
        <mxCell id="c80w9oIMeN7Q-BQ2yAEg-13" style="edgeStyle=orthogonalEdgeStyle;rounded=0;orthogonalLoop=1;jettySize=auto;html=1;" edge="1" parent="WIyWlLk6GJQsqaUBKTNV-1" source="c80w9oIMeN7Q-BQ2yAEg-5" target="c80w9oIMeN7Q-BQ2yAEg-12">
          <mxGeometry relative="1" as="geometry" />
        </mxCell>
        <mxCell id="c80w9oIMeN7Q-BQ2yAEg-33" style="edgeStyle=orthogonalEdgeStyle;rounded=0;orthogonalLoop=1;jettySize=auto;html=1;" edge="1" parent="WIyWlLk6GJQsqaUBKTNV-1" source="c80w9oIMeN7Q-BQ2yAEg-5" target="c80w9oIMeN7Q-BQ2yAEg-32">
          <mxGeometry relative="1" as="geometry" />
        </mxCell>
        <mxCell id="c80w9oIMeN7Q-BQ2yAEg-5" value="是否为收账用户" style="strokeWidth=2;html=1;shape=mxgraph.flowchart.decision;whiteSpace=wrap;" vertex="1" parent="WIyWlLk6GJQsqaUBKTNV-1">
          <mxGeometry x="364" y="450" width="100" height="60" as="geometry" />
        </mxCell>
        <mxCell id="c80w9oIMeN7Q-BQ2yAEg-8" style="edgeStyle=orthogonalEdgeStyle;rounded=0;orthogonalLoop=1;jettySize=auto;html=1;" edge="1" parent="WIyWlLk6GJQsqaUBKTNV-1" source="c80w9oIMeN7Q-BQ2yAEg-6" target="c80w9oIMeN7Q-BQ2yAEg-5">
          <mxGeometry relative="1" as="geometry" />
        </mxCell>
        <mxCell id="c80w9oIMeN7Q-BQ2yAEg-31" style="edgeStyle=orthogonalEdgeStyle;rounded=0;orthogonalLoop=1;jettySize=auto;html=1;" edge="1" parent="WIyWlLk6GJQsqaUBKTNV-1" source="c80w9oIMeN7Q-BQ2yAEg-6" target="c80w9oIMeN7Q-BQ2yAEg-30">
          <mxGeometry relative="1" as="geometry">
            <mxPoint x="680" y="1390" as="targetPoint" />
            <Array as="points">
              <mxPoint x="720" y="340" />
              <mxPoint x="720" y="1620" />
            </Array>
          </mxGeometry>
        </mxCell>
        <mxCell id="c80w9oIMeN7Q-BQ2yAEg-6" value="&lt;span&gt;按数据库顺序读取用户信息&lt;/span&gt;" style="strokeWidth=2;html=1;shape=mxgraph.flowchart.loop_limit;whiteSpace=wrap;" vertex="1" parent="WIyWlLk6GJQsqaUBKTNV-1">
          <mxGeometry x="364" y="310" width="100" height="60" as="geometry" />
        </mxCell>
        <mxCell id="c80w9oIMeN7Q-BQ2yAEg-20" style="edgeStyle=orthogonalEdgeStyle;rounded=0;orthogonalLoop=1;jettySize=auto;html=1;" edge="1" parent="WIyWlLk6GJQsqaUBKTNV-1" source="c80w9oIMeN7Q-BQ2yAEg-7" target="c80w9oIMeN7Q-BQ2yAEg-17">
          <mxGeometry relative="1" as="geometry" />
        </mxCell>
        <mxCell id="c80w9oIMeN7Q-BQ2yAEg-7" value="获取当日收益与收益差值" style="rounded=1;whiteSpace=wrap;html=1;absoluteArcSize=1;arcSize=14;strokeWidth=2;" vertex="1" parent="WIyWlLk6GJQsqaUBKTNV-1">
          <mxGeometry x="346" y="710" width="136" height="50" as="geometry" />
        </mxCell>
        <mxCell id="c80w9oIMeN7Q-BQ2yAEg-15" style="edgeStyle=orthogonalEdgeStyle;rounded=0;orthogonalLoop=1;jettySize=auto;html=1;" edge="1" parent="WIyWlLk6GJQsqaUBKTNV-1" source="c80w9oIMeN7Q-BQ2yAEg-12" target="c80w9oIMeN7Q-BQ2yAEg-6">
          <mxGeometry relative="1" as="geometry">
            <mxPoint x="178" y="370" as="targetPoint" />
            <Array as="points">
              <mxPoint x="178" y="340" />
            </Array>
          </mxGeometry>
        </mxCell>
        <mxCell id="c80w9oIMeN7Q-BQ2yAEg-12" value="跳过" style="rounded=1;whiteSpace=wrap;html=1;absoluteArcSize=1;arcSize=14;strokeWidth=2;" vertex="1" parent="WIyWlLk6GJQsqaUBKTNV-1">
          <mxGeometry x="110" y="455" width="136" height="50" as="geometry" />
        </mxCell>
        <mxCell id="c80w9oIMeN7Q-BQ2yAEg-14" value="是" style="text;html=1;align=center;verticalAlign=middle;resizable=0;points=[];autosize=1;" vertex="1" parent="WIyWlLk6GJQsqaUBKTNV-1">
          <mxGeometry x="304" y="469" width="30" height="20" as="geometry" />
        </mxCell>
        <mxCell id="c80w9oIMeN7Q-BQ2yAEg-21" style="edgeStyle=orthogonalEdgeStyle;rounded=0;orthogonalLoop=1;jettySize=auto;html=1;" edge="1" parent="WIyWlLk6GJQsqaUBKTNV-1" source="c80w9oIMeN7Q-BQ2yAEg-17" target="c80w9oIMeN7Q-BQ2yAEg-18">
          <mxGeometry relative="1" as="geometry" />
        </mxCell>
        <mxCell id="c80w9oIMeN7Q-BQ2yAEg-17" value="计算上级收益并添加到收益差值字段" style="rounded=1;whiteSpace=wrap;html=1;absoluteArcSize=1;arcSize=14;strokeWidth=2;" vertex="1" parent="WIyWlLk6GJQsqaUBKTNV-1">
          <mxGeometry x="346" y="820" width="136" height="50" as="geometry" />
        </mxCell>
        <mxCell id="c80w9oIMeN7Q-BQ2yAEg-22" style="edgeStyle=orthogonalEdgeStyle;rounded=0;orthogonalLoop=1;jettySize=auto;html=1;" edge="1" parent="WIyWlLk6GJQsqaUBKTNV-1" source="c80w9oIMeN7Q-BQ2yAEg-18" target="c80w9oIMeN7Q-BQ2yAEg-19">
          <mxGeometry relative="1" as="geometry" />
        </mxCell>
        <mxCell id="c80w9oIMeN7Q-BQ2yAEg-18" value="合并当日收益与收益差值到余额字段，更新当日收益字段" style="rounded=1;whiteSpace=wrap;html=1;absoluteArcSize=1;arcSize=14;strokeWidth=2;" vertex="1" parent="WIyWlLk6GJQsqaUBKTNV-1">
          <mxGeometry x="346" y="950" width="136" height="50" as="geometry" />
        </mxCell>
        <mxCell id="c80w9oIMeN7Q-BQ2yAEg-23" style="edgeStyle=orthogonalEdgeStyle;rounded=0;orthogonalLoop=1;jettySize=auto;html=1;exitX=1;exitY=0.5;exitDx=0;exitDy=0;" edge="1" parent="WIyWlLk6GJQsqaUBKTNV-1" source="c80w9oIMeN7Q-BQ2yAEg-26">
          <mxGeometry relative="1" as="geometry">
            <mxPoint x="470" y="340" as="targetPoint" />
            <Array as="points">
              <mxPoint x="570" y="1305" />
              <mxPoint x="570" y="340" />
            </Array>
          </mxGeometry>
        </mxCell>
        <mxCell id="c80w9oIMeN7Q-BQ2yAEg-25" style="edgeStyle=orthogonalEdgeStyle;rounded=0;orthogonalLoop=1;jettySize=auto;html=1;" edge="1" parent="WIyWlLk6GJQsqaUBKTNV-1" source="c80w9oIMeN7Q-BQ2yAEg-19" target="c80w9oIMeN7Q-BQ2yAEg-24">
          <mxGeometry relative="1" as="geometry" />
        </mxCell>
        <mxCell id="c80w9oIMeN7Q-BQ2yAEg-19" value="收益差值置为0" style="rounded=1;whiteSpace=wrap;html=1;absoluteArcSize=1;arcSize=14;strokeWidth=2;" vertex="1" parent="WIyWlLk6GJQsqaUBKTNV-1">
          <mxGeometry x="346" y="1060" width="136" height="50" as="geometry" />
        </mxCell>
        <mxCell id="c80w9oIMeN7Q-BQ2yAEg-29" style="edgeStyle=orthogonalEdgeStyle;rounded=0;orthogonalLoop=1;jettySize=auto;html=1;" edge="1" parent="WIyWlLk6GJQsqaUBKTNV-1" source="c80w9oIMeN7Q-BQ2yAEg-24" target="c80w9oIMeN7Q-BQ2yAEg-26">
          <mxGeometry relative="1" as="geometry" />
        </mxCell>
        <mxCell id="c80w9oIMeN7Q-BQ2yAEg-24" value="修改收益字段操作日期" style="rounded=1;whiteSpace=wrap;html=1;absoluteArcSize=1;arcSize=14;strokeWidth=2;" vertex="1" parent="WIyWlLk6GJQsqaUBKTNV-1">
          <mxGeometry x="346" y="1160" width="136" height="50" as="geometry" />
        </mxCell>
        <mxCell id="c80w9oIMeN7Q-BQ2yAEg-26" value="添加操作日志" style="rounded=1;whiteSpace=wrap;html=1;absoluteArcSize=1;arcSize=14;strokeWidth=2;" vertex="1" parent="WIyWlLk6GJQsqaUBKTNV-1">
          <mxGeometry x="346" y="1280" width="136" height="50" as="geometry" />
        </mxCell>
        <mxCell id="c80w9oIMeN7Q-BQ2yAEg-30" value="结束" style="strokeWidth=2;html=1;shape=mxgraph.flowchart.terminator;whiteSpace=wrap;" vertex="1" parent="WIyWlLk6GJQsqaUBKTNV-1">
          <mxGeometry x="364" y="1590" width="100" height="60" as="geometry" />
        </mxCell>
        <mxCell id="c80w9oIMeN7Q-BQ2yAEg-34" style="edgeStyle=orthogonalEdgeStyle;rounded=0;orthogonalLoop=1;jettySize=auto;html=1;entryX=0.5;entryY=0;entryDx=0;entryDy=0;" edge="1" parent="WIyWlLk6GJQsqaUBKTNV-1" source="c80w9oIMeN7Q-BQ2yAEg-32" target="c80w9oIMeN7Q-BQ2yAEg-7">
          <mxGeometry relative="1" as="geometry" />
        </mxCell>
        <mxCell id="c80w9oIMeN7Q-BQ2yAEg-32" value="是否今日收益上次操作日期在22小时以内" style="strokeWidth=2;html=1;shape=mxgraph.flowchart.decision;whiteSpace=wrap;" vertex="1" parent="WIyWlLk6GJQsqaUBKTNV-1">
          <mxGeometry x="364" y="570" width="100" height="60" as="geometry" />
        </mxCell>
      </root>
    </mxGraphModel>
  </diagram>
</mxfile>
